<?xml version="1.0" encoding="UTF-8"?>
<svg id="Layer_1" xmlns="http://www.w3.org/2000/svg" version="1.1" viewBox="0 0 475.6 106.4">
  <!-- Generator: Adobe Illustrator 29.5.0, SVG Export Plug-In . SVG Version: 2.1.0 Build 137)  -->
  <path d="M180.2,84.5v1.2h0c.2-.4.5-.8.9-1,.4-.2.9-.4,1.4-.4s.9,0,1.2.3c.4.2.6.4.9.7.2.3.4.7.5,1.1.1.4.2.8.2,1.3s0,.9-.2,1.3c-.1.4-.3.8-.5,1.1-.2.3-.5.5-.9.7-.4.2-.8.3-1.2.3s-.5,0-.7,0c-.2,0-.4-.1-.6-.3-.2-.1-.4-.3-.5-.4-.1-.2-.3-.4-.3-.6h0v3.5h-.8v-8.6h.7ZM184.4,86.7c0-.3-.2-.6-.4-.9-.2-.3-.4-.5-.6-.6-.3-.2-.6-.2-.9-.2s-.8,0-1.1.2c-.3.1-.5.3-.7.6-.2.2-.3.5-.4.8,0,.3-.1.7-.1,1s0,.6.1,1c0,.3.2.6.4.9.2.2.4.5.7.6.3.2.6.2,1,.2s.7,0,.9-.2c.3-.2.5-.4.6-.6.2-.3.3-.5.4-.9,0-.3.1-.6.1-1s0-.6-.1-1"/>
  <path d="M187,88.7c0,.3.2.6.4.8.2.2.4.4.6.6.3.2.6.2.9.2.6,0,1-.1,1.3-.4.3-.3.5-.7.7-1.2h.8c-.2.7-.5,1.3-.9,1.6-.4.4-1,.6-1.8.6s-.9,0-1.3-.3c-.4-.2-.7-.4-.9-.7-.2-.3-.4-.7-.5-1.1-.1-.4-.2-.8-.2-1.3s0-.8.2-1.2c.1-.4.3-.7.5-1.1.2-.3.5-.6.9-.8.4-.2.8-.3,1.3-.3s.9.1,1.3.3c.4.2.6.5.9.8.2.3.4.7.5,1.1s.1.9.1,1.3h-4.8c0,.3,0,.6.1.9M190.8,86.4c0-.3-.2-.5-.4-.7-.2-.2-.4-.4-.6-.5-.2-.1-.5-.2-.8-.2s-.6,0-.8.2c-.2.1-.5.3-.6.5-.2.2-.3.4-.4.7-.1.3-.2.5-.2.8h4.1c0-.3,0-.6-.2-.8"/>
  <path d="M193.4,84.5v1.5h0c.2-.5.5-.9.9-1.2.4-.3.9-.4,1.5-.4v.8c-.3,0-.7,0-.9.1-.3.1-.5.3-.7.5-.2.2-.4.4-.5.7-.1.3-.2.6-.2.9v3.3h-.8v-6.3h.7Z"/>
  <path d="M197.7,85.2v5.6h-.8v-5.6h-1.1v-.6h1.1v-.6c0-.3,0-.5,0-.7,0-.2.1-.4.2-.6.1-.2.3-.3.5-.4.2,0,.4-.1.8-.1s.2,0,.3,0c0,0,.2,0,.3,0v.7c-.1,0-.2,0-.3,0,0,0-.2,0-.3,0-.2,0-.4,0-.5,0-.1,0-.2.2-.2.3,0,.1,0,.2,0,.4,0,.1,0,.3,0,.5v.5h1.2v.6h-1.2Z"/>
  <path d="M203.6,84.6c.4.2.7.4.9.7.2.3.4.6.6,1,.1.4.2.8.2,1.3s0,.9-.2,1.3c-.1.4-.3.7-.6,1-.3.3-.6.5-.9.7-.4.2-.8.3-1.3.3s-.9,0-1.3-.3c-.4-.2-.7-.4-.9-.7-.2-.3-.4-.6-.6-1-.1-.4-.2-.8-.2-1.3s0-.9.2-1.3c.1-.4.3-.8.6-1,.3-.3.6-.5.9-.7.4-.2.8-.3,1.3-.3s.9,0,1.3.3M201.4,85.2c-.3.2-.5.4-.7.6-.2.3-.3.5-.4.9,0,.3-.1.6-.1,1s0,.7.1,1c0,.3.2.6.4.9.2.2.4.5.7.6.3.2.6.2,1,.2s.7,0,1-.2c.3-.2.5-.4.7-.6.2-.2.3-.5.4-.9,0-.3.1-.6.1-1s0-.7-.1-1c0-.3-.2-.6-.4-.9-.2-.3-.4-.5-.7-.6-.3-.2-.6-.2-1-.2s-.7,0-1,.2"/>
  <path d="M207.1,84.5v1.5h0c.2-.5.5-.9.9-1.2.4-.3.9-.4,1.5-.4v.8c-.3,0-.7,0-.9.1-.3.1-.5.3-.7.5-.2.2-.4.4-.5.7-.1.3-.2.6-.2.9v3.3h-.8v-6.3h.7Z"/>
  <path d="M210.9,84.5v1.1h0c.2-.4.5-.7.8-.9.3-.2.7-.3,1.3-.3s.8.1,1.1.3c.3.2.6.5.7.9.2-.4.5-.7.8-.9.4-.2.8-.3,1.2-.3,1.4,0,2.1.7,2.1,2.2v4.2h-.8v-4.2c0-.5-.1-.9-.3-1.2-.2-.3-.6-.4-1.2-.4s-.6,0-.8.2c-.2.1-.4.3-.5.5-.1.2-.2.5-.3.7,0,.3,0,.6,0,.8v3.5h-.8v-4.2c0-.2,0-.4,0-.6,0-.2-.1-.4-.2-.5,0-.1-.2-.3-.4-.3-.2,0-.4-.1-.6-.1s-.6,0-.8.2c-.2.1-.4.3-.6.5-.1.2-.3.5-.3.7,0,.3-.1.6-.1.9v3.5h-.8v-6.3h.7Z"/>
  <path d="M221.1,83.4h-.8v-1.2h.8v1.2ZM221.1,90.8h-.8v-6.3h.8v6.3Z"/>
  <path d="M223.3,84.5v1.1h0c.1-.4.4-.7.8-.9.4-.2.8-.3,1.2-.3s.8,0,1.1.2c.3.1.5.3.7.5.2.2.3.5.4.8,0,.3.1.6.1,1v4h-.8v-3.9c0-.3,0-.5,0-.7,0-.2-.1-.4-.3-.6-.1-.2-.3-.3-.5-.4-.2,0-.5-.1-.8-.1s-.6,0-.8.2c-.2.1-.4.3-.6.4-.2.2-.3.4-.4.7,0,.3-.1.5-.2.9v3.6h-.8v-6.3h.8Z"/>
  <path d="M234.2,91.5c-.1.4-.3.7-.5.9-.2.3-.5.5-.9.6-.4.1-.8.2-1.3.2s-.6,0-.9-.1c-.3,0-.6-.2-.8-.3-.2-.2-.4-.4-.6-.6-.2-.2-.2-.5-.3-.9h.8c0,.2.1.4.2.6.1.2.3.3.4.4.2,0,.4.2.6.2.2,0,.4,0,.6,0,.7,0,1.2-.2,1.5-.6.3-.4.5-1,.5-1.7v-.8h0c-.2.4-.4.7-.8.9-.3.2-.7.4-1.2.4s-.9,0-1.3-.2c-.4-.2-.6-.4-.9-.7-.2-.3-.4-.6-.5-1-.1-.4-.2-.8-.2-1.3s0-.8.2-1.2c.1-.4.3-.7.5-1,.2-.3.5-.5.9-.7.4-.2.8-.2,1.2-.2s.5,0,.7,0c.2,0,.4.2.6.3.2.1.3.3.5.4.1.2.2.3.3.5h0v-1.1h.8v5.7c0,.5,0,.9-.2,1.2M232.5,89.9c.3-.1.5-.3.6-.6.2-.2.3-.5.4-.8,0-.3.1-.6.1-.9s0-.6-.1-.9c0-.3-.2-.6-.4-.8-.2-.3-.4-.5-.6-.6-.3-.2-.6-.2-.9-.2s-.7,0-.9.2c-.3.1-.5.3-.6.6-.2.2-.3.5-.4.8,0,.3-.1.6-.1,1s0,.6.1.9c0,.3.2.6.4.8.2.2.4.4.6.6.3.1.6.2.9.2s.6,0,.9-.2"/>
  <path d="M239.4,85.5c.1-.3.3-.5.5-.7.2-.2.5-.3.8-.4.3,0,.6-.1,1-.1s.5,0,.8,0c.3,0,.5.2.7.3.2.1.4.3.5.6.1.3.2.6.2,1v3.3c0,.3.1.5.4.5s.2,0,.2,0v.6c0,0-.2,0-.2,0,0,0-.2,0-.3,0-.2,0-.4,0-.5,0-.1,0-.2-.1-.3-.2,0,0-.1-.2-.1-.3,0-.1,0-.3,0-.4h0c-.1.2-.3.4-.4.5-.1.2-.3.3-.5.4-.2.1-.4.2-.6.2-.2,0-.5,0-.8,0s-.6,0-.8-.1c-.3,0-.5-.2-.7-.3-.2-.1-.3-.3-.4-.6-.1-.2-.2-.5-.2-.8s0-.8.3-1c.2-.2.5-.4.8-.6.3-.1.7-.2,1.1-.3.4,0,.8-.1,1.2-.2.2,0,.3,0,.4,0,.1,0,.2,0,.3-.1,0,0,.1-.1.2-.2,0-.1,0-.2,0-.4,0-.3,0-.5-.1-.6,0-.2-.2-.3-.4-.4-.2,0-.3-.2-.5-.2-.2,0-.4,0-.6,0-.5,0-.9.1-1.2.3-.3.2-.5.6-.5,1.1h-.8c0-.4.1-.7.2-.9M243.2,87.4c0,0-.1.2-.3.2-.1,0-.3,0-.4,0-.3,0-.7.1-1,.2-.3,0-.7.1-.9.2-.3,0-.5.2-.7.4-.2.2-.3.4-.3.7s0,.4.1.5c0,.1.2.3.3.4.1.1.3.2.4.2.2,0,.3,0,.5,0,.3,0,.6,0,.8-.1.3,0,.5-.2.7-.4.2-.2.4-.4.5-.6.1-.2.2-.5.2-.8v-1h0Z"/>
  <path d="M246.2,84.5v1.5h0c.2-.5.5-.9.9-1.2.4-.3.9-.4,1.5-.4v.8c-.3,0-.7,0-.9.1-.3.1-.5.3-.7.5-.2.2-.4.4-.5.7-.1.3-.2.6-.2.9v3.3h-.8v-6.3h.7Z"/>
  <path d="M251.8,84.5v.6h-1.3v4.2c0,.3,0,.4.1.6,0,.1.2.2.5.2.2,0,.4,0,.7,0v.6c-.1,0-.2,0-.3,0-.1,0-.2,0-.3,0-.5,0-.9,0-1.1-.3-.2-.2-.3-.6-.3-1.1v-4.3h-1.1v-.6h1.1v-1.9h.8v1.9h1.3Z"/>
  <path d="M256.5,85.8c0-.2-.2-.3-.4-.4-.2-.1-.3-.2-.5-.2-.2,0-.4,0-.6,0s-.3,0-.5,0c-.2,0-.3,0-.5.2-.1,0-.3.2-.4.3,0,.1-.1.3-.1.5s0,.3.1.4c0,.1.2.2.3.3.1,0,.3.1.4.2.2,0,.3,0,.4.1l1,.2c.2,0,.4,0,.6.2.2,0,.4.2.6.3.2.1.3.3.4.5.1.2.2.4.2.7s0,.6-.2.9c-.2.2-.4.4-.6.6-.2.1-.5.3-.8.3-.3,0-.6,0-.9,0-.7,0-1.3-.2-1.8-.5-.5-.3-.7-.9-.8-1.7h.8c0,.5.2.9.6,1.2.3.3.8.4,1.3.4s.4,0,.6,0c.2,0,.4-.1.6-.2.2,0,.3-.2.4-.4.1-.1.2-.3.2-.6s0-.3-.1-.5c0-.1-.2-.2-.3-.3-.1,0-.3-.2-.4-.2-.2,0-.3-.1-.5-.1l-1-.2c-.2,0-.5-.1-.7-.2-.2,0-.4-.2-.6-.3-.2-.1-.3-.3-.4-.5,0-.2-.1-.4-.1-.7s0-.6.2-.8c.1-.2.3-.4.6-.5.2-.1.5-.2.8-.3.3,0,.6,0,.8,0s.6,0,.9.1c.3,0,.5.2.7.4.2.2.4.4.5.6.1.2.2.5.2.9h-.8c0-.2,0-.4-.1-.6"/>
  <path d="M265.9,85.4c-.3-.3-.7-.4-1.2-.4s-.7,0-1,.2c-.3.2-.5.4-.7.6-.2.3-.3.5-.4.9,0,.3-.1.6-.1,1s0,.7.1,1c0,.3.2.6.4.9.2.2.4.5.7.6.3.2.6.2,1,.2s.5,0,.7-.1c.2,0,.4-.2.6-.4.2-.2.3-.3.4-.6.1-.2.2-.5.2-.7h.8c-.1.8-.4,1.4-.8,1.8-.5.4-1,.6-1.7.6s-.9,0-1.3-.3c-.4-.2-.7-.4-.9-.7-.2-.3-.4-.6-.6-1-.1-.4-.2-.8-.2-1.3s0-.9.2-1.3c.1-.4.3-.8.6-1,.2-.3.6-.5.9-.7.4-.2.8-.3,1.3-.3s1.2.2,1.7.5c.5.4.7.9.8,1.6h-.8c-.1-.5-.3-.8-.6-1.1"/>
  <path d="M272.3,84.6c.4.2.7.4.9.7.3.3.4.6.6,1,.1.4.2.8.2,1.3s0,.9-.2,1.3c-.1.4-.3.7-.6,1-.3.3-.6.5-.9.7-.4.2-.8.3-1.3.3s-.9,0-1.3-.3c-.4-.2-.7-.4-.9-.7-.2-.3-.4-.6-.6-1-.1-.4-.2-.8-.2-1.3s0-.9.2-1.3c.1-.4.3-.8.6-1,.3-.3.6-.5.9-.7.4-.2.8-.3,1.3-.3s.9,0,1.3.3M270.1,85.2c-.3.2-.5.4-.7.6-.2.3-.3.5-.4.9,0,.3-.1.6-.1,1s0,.7.1,1c0,.3.2.6.4.9.2.2.4.5.7.6.3.2.6.2,1,.2s.7,0,1-.2c.3-.2.5-.4.7-.6.2-.2.3-.5.4-.9,0-.3.1-.6.1-1s0-.7-.1-1c0-.3-.2-.6-.4-.9-.2-.3-.4-.5-.7-.6-.3-.2-.6-.2-1-.2s-.7,0-1,.2"/>
  <path d="M275.9,84.5v1.1h0c.2-.4.5-.7.8-.9.3-.2.7-.3,1.3-.3s.8.1,1.1.3c.3.2.6.5.7.9.2-.4.5-.7.8-.9.4-.2.8-.3,1.2-.3,1.4,0,2.1.7,2.1,2.2v4.2h-.8v-4.2c0-.5-.1-.9-.3-1.2-.2-.3-.6-.4-1.2-.4s-.6,0-.8.2c-.2.1-.4.3-.5.5-.1.2-.2.5-.3.7,0,.3,0,.6,0,.8v3.5h-.8v-4.2c0-.2,0-.4,0-.6,0-.2-.1-.4-.2-.5-.1-.1-.2-.3-.4-.3-.2,0-.4-.1-.6-.1s-.6,0-.8.2c-.2.1-.4.3-.6.5-.1.2-.3.5-.3.7,0,.3-.1.6-.1.9v3.5h-.8v-6.3h.7Z"/>
  <path d="M286,84.5v1.2h0c.2-.4.5-.8.9-1,.4-.2.9-.4,1.4-.4s.9,0,1.2.3c.4.2.6.4.9.7.2.3.4.7.5,1.1.1.4.2.8.2,1.3s0,.9-.2,1.3c-.1.4-.3.8-.5,1.1-.2.3-.5.5-.9.7-.4.2-.8.3-1.2.3s-.5,0-.7,0c-.2,0-.4-.1-.6-.3-.2-.1-.4-.3-.5-.4-.1-.2-.3-.4-.3-.6h0v3.5h-.8v-8.6h.7ZM290.1,86.7c0-.3-.2-.6-.4-.9-.2-.3-.4-.5-.6-.6-.3-.2-.6-.2-.9-.2s-.8,0-1.1.2c-.3.1-.5.3-.7.6-.2.2-.3.5-.4.8,0,.3-.1.7-.1,1s0,.6.1,1c0,.3.2.6.4.9.2.2.4.5.7.6.3.2.6.2,1,.2s.7,0,.9-.2c.3-.2.5-.4.6-.6.2-.3.3-.5.4-.9,0-.3.1-.6.1-1s0-.6-.1-1"/>
  <path d="M292.4,85.5c.1-.3.3-.5.5-.7.2-.2.5-.3.8-.4.3,0,.6-.1,1-.1s.6,0,.8,0c.3,0,.5.2.7.3.2.1.4.3.5.6.1.3.2.6.2,1v3.3c0,.3.2.5.4.5s.2,0,.2,0v.6c0,0-.2,0-.2,0,0,0-.2,0-.3,0-.2,0-.3,0-.5,0-.1,0-.2-.1-.3-.2,0,0-.1-.2-.1-.3,0-.1,0-.3,0-.4h0c-.1.2-.3.4-.4.5-.1.2-.3.3-.5.4-.2.1-.4.2-.6.2-.2,0-.5,0-.8,0s-.6,0-.8-.1c-.3,0-.5-.2-.7-.3s-.3-.3-.4-.6c-.1-.2-.2-.5-.2-.8s0-.8.3-1c.2-.2.5-.4.8-.6.3-.1.7-.2,1.1-.3.4,0,.8-.1,1.2-.2.2,0,.3,0,.4,0,.1,0,.2,0,.3-.1,0,0,.1-.1.2-.2,0-.1,0-.2,0-.4,0-.3,0-.5-.1-.6,0-.2-.2-.3-.4-.4-.1,0-.3-.2-.5-.2-.2,0-.4,0-.6,0-.5,0-.9.1-1.2.3-.3.2-.5.6-.5,1.1h-.8c0-.4.1-.7.2-.9M296.2,87.4c0,0-.1.2-.3.2-.1,0-.3,0-.4,0-.3,0-.7.1-1,.2-.3,0-.7.1-.9.2-.3,0-.5.2-.7.4-.2.2-.3.4-.3.7s0,.4.1.5c0,.1.2.3.3.4.1.1.3.2.4.2.2,0,.3,0,.5,0,.3,0,.6,0,.8-.1.3,0,.5-.2.7-.4.2-.2.4-.4.5-.6.1-.2.2-.5.2-.8v-1h0Z"/>
  <path d="M299.3,84.5v1.1h0c.1-.4.4-.7.8-.9.4-.2.8-.3,1.2-.3s.8,0,1.1.2c.3.1.5.3.7.5.2.2.3.5.4.8,0,.3.1.6.1,1v4h-.8v-3.9c0-.3,0-.5,0-.7,0-.2-.1-.4-.3-.6-.1-.2-.3-.3-.5-.4-.2,0-.5-.1-.8-.1s-.6,0-.8.2c-.2.1-.4.3-.6.4-.2.2-.3.4-.4.7,0,.3-.1.5-.2.9v3.6h-.8v-6.3h.8Z"/>
  <path d="M305.1,84.5l2.1,5.3,1.9-5.3h.8l-2.7,7.2c-.1.3-.2.5-.3.7,0,.2-.2.3-.3.4-.1.1-.3.2-.4.2-.2,0-.4,0-.6,0-.2,0-.3,0-.4,0,0,0-.2,0-.2,0v-.6c0,0,.2,0,.3,0,0,0,.2,0,.3,0,.2,0,.3,0,.4,0,.1,0,.2-.1.3-.2,0,0,.1-.2.2-.3,0-.1.1-.3.2-.4l.3-.7-2.5-6.2h.8Z"/>
  <g>
    <path d="M194.1,30.8c1.6,0,2.6-.3,3.2-.8.6-.6,1.1-1.5,1.5-2.8.4-1.3.6-2.4.6-3.3,0-1.5-1.3-2.3-4-2.3s-2.4.7-3.2,2.2c-.8,1.5-1.3,3.1-1.3,5s1,2,3.1,2Z"/>
    <path d="M348.7,60.6c-12.1-.1-24-1.8-25.8-3.6,0-3.2-1.8-4.6-2.9-5.2-6-3.2-19.4,4.8-23.3,7.3h0c-3.1,2-5.6,3.7-8,4.9-3.3,1.6-6.5,2.5-9.8,2.5s-3.3-.8-4.1-2.5c-.6-1.1-.9-2.6-.9-4.4v-.3l1.7-.7c4.5-1.8,7.7-3.5,9.7-4.9,3.8-2.7,5.6-5.9,5.6-9.6s-2.2-6.1-6.5-6.1-8.6,2.3-12.1,6.8c-3.2,4.2-4.9,8.9-5.2,14.3-6.3,3.9-7.9,6.5-10.1,6.5s-1.3-.5-1.3-1.4.9-3.3,2.6-8.3c.8-2.2,1.1-4.1,1.1-5.6,0-3.2-1.2-5.5-3.5-6.9-1-.6-2.8-1.4-5.6-2.3.8-2.2,1.2-3.8,1.2-5s-.3-1.9-.8-2.3c-.5-.3-1.9-.5-4.1-.5s-2.2.5-2.5,1.4c-.4.9-.5,2.2-.5,3.9s.4,2.1,1.1,3.6c-1.2,2.5-3,5.2-5.4,7.9-1.2,1.3-3.2,3.4-6,6.1h0c-.8.7-1.4,1.4-2,1.9-.6.5-1.3.8-2.1.8-1.3,0-2.4-1.3-3.3-3.9.9-2.3,1.6-4.1,2-5.3.8-2.3,1.1-4.1,1.1-5.4,0-1.9-.9-2.9-2.7-2.9s-2.9,1.1-3.8,3.4c-.9,2.3-1.3,5.5-1.3,9.8-1.3,3-3.1,5.7-5.4,8.1-2.3,2.4-4.1,3.6-5.5,3.6s-1.9-1.6-1.9-4.7v-5.3c6.2-7.5,10.7-13.9,13.6-19.3,2.9-5.3,4.3-9.9,4.3-13.8s-.5-3.7-1.5-5c-1-1.4-2.3-2.1-3.7-2.1-3.9,0-7.4,3.1-10.6,9.4-2.5,4.8-4.6,11.3-6.4,19.3-1.1,4.9-1.7,9-2,12.3-1.2,1.1-2.5,2.2-3.7,3.3-3.8,3.2-6.4,4.8-7.7,4.8s-1.5-1.3-1.5-3.9.3-4.8,1-7.8c.7-3,1.9-7,3.5-12l.8-2.4h-6.8c-1.6,4.1-2.9,8-3.8,11.8-.5,2.2-.9,4.2-1.1,6.1-3.9,3.6-7.1,5.5-9.6,5.5-.4-2.9-1-5.3-1.9-7.1-.9-1.8-2.2-3.4-3.8-4.8,3.2-3.2,5.6-5.9,7.3-7.9,2.6-3.2,4.5-6.2,5.8-9,1.6-3.4,2.3-6.9,2.3-10.3s-.5-4.2-1.5-5.6c-1-1.4-2.4-2.1-4-2.1-2.7,0-5.3,1.9-7.8,5.6-2,3.1-4,7.3-5.9,12.8-1,3-2.4,7.6-4.1,13.8-2.7,0-4.9,3.6-4.9,8.4h0c0,.1,0,.1,0,.1,0-.2,0-.2,0-.2-.5,1.2-5,4.5-19.5,4.5H15.6v4.9h119.6c12.2,0,18.3-2.1,21.3-4.3-.4,2.7-.8,5.1-1,7-.2,2.1-.4,3.9-.4,5.5,0,4.2.6,7.5,1.7,10,1.2,2.5,2.8,3.7,5,3.7,4.2,0,7.3-2.4,9.3-7.3,1.5-3.5,2.2-7.7,2.2-12.6,2.4-.3,4.3-.7,5.7-1.3,1.1-.5,2.3-1.3,3.7-2.3,0,1.5.2,2.8.4,3.6.6,2.8,2,4.2,4,4.2s5.3-1,8.7-3.1c2.4-1.4,4.5-3,6.4-4.7.2,2,.6,3.6,1.1,4.9.9,1.9,2.4,2.9,4.5,2.9s5.9-1.1,8.7-3.2c2.8-2.1,5.1-4.8,6.9-8,1.3,2.7,3.2,4.1,5.6,4.1s2.3-.5,3.9-1.4h0c0,0,.1,0,.2-.1,0,0,.1,0,.2-.1h0c2.8-2.6,4.9-4.6,6.3-5.9,4.4-4.2,7.4-8.1,9.1-11.7,2.8,1.1,4.2,2.9,4.2,5.3s-.7,3.5-2.1,6.9c-1.4,3.3-2.1,5.9-2.1,7.8s.5,3.4,1.4,4.6c.9,1.2,2.1,1.8,3.6,1.8,3.3,0,9.1-4.2,13.9-7.3.4,1.4.9,2.7,1.7,3.9,1.5,2.3,3.6,3.5,6.5,3.5,7.8,0,15.8-3,24-8.9,6.9-4.3,15.5-8.1,17.8-6.8.2.1.3.5.3,1.2,0,5.2,10.3,8,30.7,8.2h112.6v-4.9h-112.6ZM278.5,46.3c1.8-2.2,3.6-3.3,5.4-3.3s1.9.6,1.9,1.8-1,3.2-3,4.9c-2,1.6-4.6,3.1-8,4.3.6-3,1.9-5.5,3.7-7.7ZM215,29.2c1.9-5.1,3.7-7.6,5.2-7.6s1.4.8,1.4,2.5c0,2.7-1.2,6.4-3.5,11-2.2,4.2-4.9,8.4-8.1,12.7,1.2-6.6,2.9-12.8,5.1-18.7ZM170.9,31.8c2.3-6.8,4.3-10.2,6-10.2s.9.3,1.1.9c.3.6.4,1.4.4,2.3,0,3.1-1.2,6.6-3.5,10.3-1.9,3.1-4.4,6.2-7.7,9.4,1.5-5.8,2.7-10,3.5-12.7ZM166.5,79.8c-.8,1.6-1.9,2.3-3.1,2.3s-1.4-.7-1.8-2.2c-.5-1.5-.7-3.3-.7-5.4s0-2.5.2-4.2c.2-1.7.4-3.6.8-5.7.9.8,1.7,1.4,2.7,1.8.9.4,2.2.7,3.8,1,0,5.8-.6,9.9-1.9,12.3ZM165.4,61.4c-1-.5-1.8-1-2.4-1.5l1.5-6.1c1.4,1.9,2.4,3.5,3,4.8.6,1.3.9,2.6.9,3.8-1-.2-2-.5-3-1Z"/>
  </g>
</svg>