<?xml version="1.0" encoding="UTF-8"?>
<svg id="Layer_1" xmlns="http://www.w3.org/2000/svg" version="1.1" viewBox="0 0 414.1 166.7">
  <!-- Generator: Adobe Illustrator 29.5.0, SVG Export Plug-In . SVG Version: 2.1.0 Build 137)  -->
  <defs>
    <style>
      .st0 {
        fill: #fcfcfc;
      }
    </style>
  </defs>
  <circle class="st0" cx="329.6" cy="47.5" r="8"/>
  <path class="st0" d="M108.8,51.4c-3.5-9.4-8.7-16.8-15.6-22.1-6.9-5.3-15.3-8-25.3-8s-18.4,2.7-25.3,8c-6.9,5.3-12.1,12.7-15.6,22.1-3.5,9.4-5.2,20.1-5.2,32.1s1.7,21.8,5.2,31.1c3.5,9.3,8.7,16.7,15.6,22.2,7,5.5,15.4,8.2,25.2,8.2s18.3-2.8,25.2-8.2c7-5.5,12.2-12.9,15.6-22.2,3.5-9.3,5.2-19.7,5.2-31.1s-1.7-22.7-5.2-32.1ZM92.2,125.6c-5.2,11.4-13.3,17.1-24.2,17.1s-13.4-2.8-18.2-8.3c-4.8-5.6-8.3-12.8-10.5-21.8-2.2-9-3.3-18.7-3.3-29.1,0-16.8,2.5-31,7.6-42.6,5.1-11.6,13.2-17.3,24.4-17.3s13.7,2.8,18.5,8.5c4.8,5.7,8.2,13,10.4,22,2.1,9,3.2,18.8,3.2,29.4,0,16.7-2.6,30.8-7.8,42.1Z"/>
  <path class="st0" d="M189.5,81.4V22.8h14.1v123.9h-14.1v-62.9h-49.6v62.9h-14.1V22.8h14.1v58.5h49.6Z"/>
  <path class="st0" d="M241.9,89.6l20.3-60.7,20.3,60.7h0c.3.8.6,1.6.8,2.4s0,0,0,0l3.1,9.4c2.3,7,3.9,13.5,5.1,19.7,1.1,6.2,2.3,13.9,3.5,23h7.8l-39.6-118.1h-14.1l-39.5,118.1h14.1l17.5-52.2"/>
  <path class="st0" d="M67.6,89.8c6.4,0,6.4-10,0-10s-6.4,10,0,10h0Z"/>
  <g>
    <path class="st0" d="M324.1,125.7c-.4,0-.8-.1-1.1-.3v20.1h14.1v-19.8h-13Z"/>
    <path class="st0" d="M390.7,51.6c-3.6-4.1-8.1-6.2-13.3-6.2s-13.6,3-20.9,9c-7.2,6-13.7,14.8-19.3,26.5v-25.8c0-.4,0-.8-.1-1.2-1.4,2.6-4.1,4.3-7.2,4.3s-5.2-1.4-6.7-3.4c0,.1,0,.2,0,.4v30.3c.3-.2.7-.3,1.1-.3h13.2c.1-.5.2-.9.4-1.3,2.9-6.3,6.2-11.8,9.9-16.6,4-5.2,8-9.1,12.1-11.9,4.1-2.8,7.8-4.2,11.2-4.2s6.1,1.5,8,4.6c2,3.1,3,7.7,3,13.9v76h14.1v-75.5c0-8.1-1.8-14.2-5.4-18.3Z"/>
  </g>
  <path class="st0" d="M313.7,122.7c-4.9-2.6-8.8-6.5-11.6-11.6s-4.2-11.5-4.2-19V26.8h11.8v72.2c0,8.9,2,15.4,6,19.6,4,4.1,8.9,6.2,14.8,6.2s10.6-2.1,14.5-6.2c3.9-4.1,5.9-10.7,5.9-19.6V26.8h11.7v65.3c0,11.1-3,19.7-8.9,25.6-5.9,5.9-13.7,8.9-23.2,8.9s-11.9-1.3-16.8-3.9Z"/>
</svg>